<svg xmlns="http://www.w3.org/2000/svg" width="74" height="64" viewBox="0 0 74 64" fill="none">
<path d="M18.4998 32C18.4998 33.4145 19.1495 34.771 20.306 35.7712C21.4625 36.7714 23.031 37.3333 24.6665 37.3333C26.302 37.3333 27.8705 36.7714 29.027 35.7712C30.1835 34.771 30.8332 33.4145 30.8332 32C30.8332 30.5855 30.1835 29.229 29.027 28.2288C27.8705 27.2286 26.302 26.6667 24.6665 26.6667C23.031 26.6667 21.4625 27.2286 20.306 28.2288C19.1495 29.229 18.4998 30.5855 18.4998 32Z" stroke="black" stroke-width="1.5" stroke-linecap="round" stroke-linejoin="round"/>
<path d="M6.1665 32C6.1665 27.7565 8.11561 23.6869 11.585 20.6863C15.0545 17.6857 19.76 16 24.6665 16H49.3332C54.2397 16 58.9452 17.6857 62.4147 20.6863C65.8841 23.6869 67.8332 27.7565 67.8332 32C67.8332 36.2435 65.8841 40.3131 62.4147 43.3137C58.9452 46.3143 54.2397 48 49.3332 48H24.6665C19.76 48 15.0545 46.3143 11.585 43.3137C8.11561 40.3131 6.1665 36.2435 6.1665 32Z" stroke="black" stroke-width="1.5" stroke-linecap="round" stroke-linejoin="round"/>
</svg>